<svg xmlns="http://www.w3.org/2000/svg" viewBox="0 0 1100 650">
  <style>
    text { font-family: 'Segoe UI','Microsoft YaHei',system-ui,sans-serif; }
  </style>

  <!-- 背景 -->
  <rect width="1100" height="650" rx="12" fill="#ffffff" stroke="#d1d5db"/>

  <!-- 标题 -->
  <rect x="350" y="18" width="400" height="40" rx="8" fill="#1e293b"/>
  <text x="550" y="44" text-anchor="middle" fill="#ffffff" font-size="18" font-weight="bold">Agent 安全防护六层体系</text>

  <!-- 左侧攻击类型标注区 -->
  <rect x="20" y="80" width="150" height="460" rx="8" fill="#f8fafc" stroke="#e2e8f0"/>
  <text x="95" y="105" text-anchor="middle" fill="#475569" font-size="14" font-weight="bold">攻击类型</text>
  <line x1="40" y1="115" x2="150" y2="115" stroke="#e2e8f0"/>
  <text x="95" y="145" text-anchor="middle" fill="#475569" font-size="12">直接 Prompt</text>
  <text x="95" y="162" text-anchor="middle" fill="#475569" font-size="12">Injection</text>
  <rect x="40" y="180" width="110" height="1" fill="#e2e8f0"/>
  <text x="95" y="200" text-anchor="middle" fill="#475569" font-size="12">间接 Prompt</text>
  <text x="95" y="217" text-anchor="middle" fill="#475569" font-size="12">Injection</text>
  <text x="95" y="234" text-anchor="middle" fill="#475569" font-size="11">(数据/工具注入)</text>
  <rect x="40" y="250" width="110" height="1" fill="#e2e8f0"/>
  <text x="95" y="275" text-anchor="middle" fill="#475569" font-size="12">Jailbreak</text>
  <text x="95" y="292" text-anchor="middle" fill="#475569" font-size="11">(角色扮演/多语言</text>
  <text x="95" y="309" text-anchor="middle" fill="#475569" font-size="11">编码绕过)</text>
  <rect x="40" y="325" width="110" height="1" fill="#e2e8f0"/>
  <text x="95" y="350" text-anchor="middle" fill="#475569" font-size="12">工具滥用</text>
  <text x="95" y="367" text-anchor="middle" fill="#475569" font-size="11">(参数篡改/越权)</text>
  <rect x="40" y="383" width="110" height="1" fill="#e2e8f0"/>
  <text x="95" y="408" text-anchor="middle" fill="#475569" font-size="12">数据泄露</text>
  <text x="95" y="425" text-anchor="middle" fill="#475569" font-size="11">(PII/System Prompt)</text>
  <rect x="40" y="441" width="110" height="1" fill="#e2e8f0"/>
  <text x="95" y="466" text-anchor="middle" fill="#475569" font-size="12">记忆投毒</text>
  <text x="95" y="483" text-anchor="middle" fill="#475569" font-size="11">(持久化攻击)</text>

  <!-- 右侧防御框架标注区 -->
  <rect x="930" y="80" width="150" height="460" rx="8" fill="#f8fafc" stroke="#e2e8f0"/>
  <text x="1005" y="105" text-anchor="middle" fill="#475569" font-size="14" font-weight="bold">防御框架</text>
  <line x1="950" y1="115" x2="1060" y2="115" stroke="#e2e8f0"/>
  <text x="1005" y="145" text-anchor="middle" fill="#475569" font-size="13" font-weight="bold">NeMo Guardrails</text>
  <text x="1005" y="165" text-anchor="middle" fill="#475569" font-size="11">话题控制 / PII检测</text>
  <text x="1005" y="182" text-anchor="middle" fill="#475569" font-size="11">Jailbreak防御</text>
  <text x="1005" y="199" text-anchor="middle" fill="#475569" font-size="11">Colang规则引擎</text>
  <rect x="950" y="215" width="110" height="1" fill="#e2e8f0"/>
  <text x="1005" y="240" text-anchor="middle" fill="#475569" font-size="13" font-weight="bold">Guardrails AI</text>
  <text x="1005" y="260" text-anchor="middle" fill="#475569" font-size="11">输出结构验证</text>
  <text x="1005" y="277" text-anchor="middle" fill="#475569" font-size="11">Validator Hub</text>
  <text x="1005" y="294" text-anchor="middle" fill="#475569" font-size="11">Pydantic集成</text>
  <rect x="950" y="310" width="110" height="1" fill="#e2e8f0"/>
  <text x="1005" y="335" text-anchor="middle" fill="#475569" font-size="13" font-weight="bold">Lakera Guard</text>
  <text x="1005" y="355" text-anchor="middle" fill="#475569" font-size="11">Injection实时检测</text>
  <text x="1005" y="372" text-anchor="middle" fill="#475569" font-size="11">内容安全分类</text>
  <text x="1005" y="389" text-anchor="middle" fill="#475569" font-size="11">API即插即用</text>
  <rect x="950" y="405" width="110" height="1" fill="#e2e8f0"/>
  <text x="1005" y="430" text-anchor="middle" fill="#475569" font-size="13" font-weight="bold">LLM Guard</text>
  <text x="1005" y="450" text-anchor="middle" fill="#475569" font-size="11">输入/输出扫描</text>
  <text x="1005" y="467" text-anchor="middle" fill="#475569" font-size="11">匿名化处理</text>
  <rect x="950" y="483" width="110" height="1" fill="#e2e8f0"/>
  <text x="1005" y="508" text-anchor="middle" fill="#475569" font-size="13" font-weight="bold">OpenAI Moderation</text>
  <text x="1005" y="528" text-anchor="middle" fill="#475569" font-size="11">内容安全分类API</text>

  <!-- 六层防护 - 中间区域 -->
  <!-- Layer 1: 输入层 -->
  <rect x="195" y="80" width="710" height="60" rx="6" fill="#f1f5f9" stroke="#cbd5e1"/>
  <rect x="205" y="85" width="120" height="50" rx="4" fill="#1e293b"/>
  <text x="265" y="115" text-anchor="middle" fill="#ffffff" font-size="14" font-weight="bold">① 输入层</text>
  <text x="380" y="103" fill="#1e293b" font-size="13">Prompt Injection 检测</text>
  <text x="380" y="125" fill="#475569" font-size="11">规则匹配 · 分类器模型 · Perplexity异常检测 · 输入长度/频率限制</text>

  <!-- 连接线 -->
  <line x1="550" y1="140" x2="550" y2="155" stroke="#94a3b8" stroke-width="1.5" marker-end="url(#arrow)"/>

  <!-- Layer 2: 指令层 -->
  <rect x="195" y="155" width="710" height="60" rx="6" fill="#f1f5f9" stroke="#cbd5e1"/>
  <rect x="205" y="160" width="120" height="50" rx="4" fill="#1e293b"/>
  <text x="265" y="190" text-anchor="middle" fill="#ffffff" font-size="14" font-weight="bold">② 指令层</text>
  <text x="380" y="178" fill="#1e293b" font-size="13">System Prompt 隔离 · 角色锁定</text>
  <text x="380" y="200" fill="#475569" font-size="11">分隔符标记 · 指令优先级 · Prompt不可覆盖 · 角色一致性检测</text>

  <line x1="550" y1="215" x2="550" y2="230" stroke="#94a3b8" stroke-width="1.5" marker-end="url(#arrow)"/>

  <!-- Layer 3: 模型层 -->
  <rect x="195" y="230" width="710" height="60" rx="6" fill="#f1f5f9" stroke="#cbd5e1"/>
  <rect x="205" y="235" width="120" height="50" rx="4" fill="#1e293b"/>
  <text x="265" y="265" text-anchor="middle" fill="#ffffff" font-size="14" font-weight="bold">③ 模型层</text>
  <text x="380" y="253" fill="#1e293b" font-size="13">安全对齐 · 输出约束</text>
  <text x="380" y="275" fill="#475569" font-size="11">RLHF/RLAIF安全训练 · Constitutional AI · 安全微调 · 温度控制</text>

  <line x1="550" y1="290" x2="550" y2="305" stroke="#94a3b8" stroke-width="1.5" marker-end="url(#arrow)"/>

  <!-- Layer 4: 工具层 -->
  <rect x="195" y="305" width="710" height="60" rx="6" fill="#f1f5f9" stroke="#cbd5e1"/>
  <rect x="205" y="310" width="120" height="50" rx="4" fill="#1e293b"/>
  <text x="265" y="340" text-anchor="middle" fill="#ffffff" font-size="14" font-weight="bold">④ 工具层</text>
  <text x="380" y="328" fill="#1e293b" font-size="13">沙箱执行 · 权限最小化 · 参数校验</text>
  <text x="380" y="350" fill="#475569" font-size="11">Docker/gVisor沙箱 · RBAC权限 · JSON Schema校验 · 操作白名单 · 人工审批</text>

  <line x1="550" y1="365" x2="550" y2="380" stroke="#94a3b8" stroke-width="1.5" marker-end="url(#arrow)"/>

  <!-- Layer 5: 输出层 -->
  <rect x="195" y="380" width="710" height="60" rx="6" fill="#f1f5f9" stroke="#cbd5e1"/>
  <rect x="205" y="385" width="120" height="50" rx="4" fill="#1e293b"/>
  <text x="265" y="415" text-anchor="middle" fill="#ffffff" font-size="14" font-weight="bold">⑤ 输出层</text>
  <text x="380" y="403" fill="#1e293b" font-size="13">PII 过滤 · 有害内容检测 · 事实校验</text>
  <text x="380" y="425" fill="#475569" font-size="11">正则+NER脱敏 · 内容安全分类 · RAG Grounding验证 · 话题边界控制</text>

  <line x1="550" y1="440" x2="550" y2="455" stroke="#94a3b8" stroke-width="1.5" marker-end="url(#arrow)"/>

  <!-- Layer 6: 运维层 -->
  <rect x="195" y="455" width="710" height="60" rx="6" fill="#f1f5f9" stroke="#cbd5e1"/>
  <rect x="205" y="460" width="120" height="50" rx="4" fill="#1e293b"/>
  <text x="265" y="490" text-anchor="middle" fill="#ffffff" font-size="14" font-weight="bold">⑥ 运维层</text>
  <text x="380" y="478" fill="#1e293b" font-size="13">审计日志 · Red Teaming · 监控告警</text>
  <text x="380" y="500" fill="#475569" font-size="11">全链路日志 · 自动化红队测试 · 异常行为检测 · 安全事件响应 · A/B安全回归</text>

  <!-- 左侧攻击箭头 -->
  <defs>
    <marker id="arrow" viewBox="0 0 10 10" refX="5" refY="5" markerWidth="5" markerHeight="5" orient="auto-start-reverse">
      <path d="M 0 0 L 10 5 L 0 10 z" fill="#94a3b8"/>
    </marker>
    <marker id="attackArrow" viewBox="0 0 10 10" refX="5" refY="5" markerWidth="5" markerHeight="5" orient="auto-start-reverse">
      <path d="M 0 0 L 10 5 L 0 10 z" fill="#94a3b8"/>
    </marker>
  </defs>

  <!-- 攻击箭头连线 -->
  <line x1="170" y1="150" x2="195" y2="110" stroke="#94a3b8" stroke-width="1" stroke-dasharray="4,3" marker-end="url(#arrow)"/>
  <line x1="170" y1="215" x2="195" y2="185" stroke="#94a3b8" stroke-width="1" stroke-dasharray="4,3" marker-end="url(#arrow)"/>
  <line x1="170" y1="290" x2="195" y2="260" stroke="#94a3b8" stroke-width="1" stroke-dasharray="4,3" marker-end="url(#arrow)"/>
  <line x1="170" y1="370" x2="195" y2="335" stroke="#94a3b8" stroke-width="1" stroke-dasharray="4,3" marker-end="url(#arrow)"/>
  <line x1="170" y1="430" x2="195" y2="410" stroke="#94a3b8" stroke-width="1" stroke-dasharray="4,3" marker-end="url(#arrow)"/>
  <line x1="170" y1="475" x2="195" y2="485" stroke="#94a3b8" stroke-width="1" stroke-dasharray="4,3" marker-end="url(#arrow)"/>

  <!-- 右侧框架连线 -->
  <line x1="930" y1="160" x2="905" y2="110" stroke="#94a3b8" stroke-width="1" stroke-dasharray="4,3"/>
  <line x1="930" y1="270" x2="905" y2="260" stroke="#94a3b8" stroke-width="1" stroke-dasharray="4,3"/>
  <line x1="930" y1="360" x2="905" y2="335" stroke="#94a3b8" stroke-width="1" stroke-dasharray="4,3"/>
  <line x1="930" y1="450" x2="905" y2="410" stroke="#94a3b8" stroke-width="1" stroke-dasharray="4,3"/>
  <line x1="930" y1="520" x2="905" y2="485" stroke="#94a3b8" stroke-width="1" stroke-dasharray="4,3"/>

  <!-- 底部标注 -->
  <rect x="195" y="535" width="710" height="95" rx="8" fill="#f8fafc" stroke="#e2e8f0"/>
  <text x="550" y="558" text-anchor="middle" fill="#1e293b" font-size="14" font-weight="bold">OWASP LLM Top 10 (2025) 关键风险</text>
  <text x="220" y="580" fill="#475569" font-size="11">LLM01: Prompt Injection</text>
  <text x="420" y="580" fill="#475569" font-size="11">LLM02: 敏感信息泄露</text>
  <text x="620" y="580" fill="#475569" font-size="11">LLM03: 供应链漏洞</text>
  <text x="220" y="600" fill="#475569" font-size="11">LLM04: 数据与模型投毒</text>
  <text x="420" y="600" fill="#475569" font-size="11">LLM05: 不当输出处理</text>
  <text x="620" y="600" fill="#475569" font-size="11">LLM06: 过度自主权</text>
  <text x="220" y="620" fill="#475569" font-size="11">LLM07: 系统Prompt泄露</text>
  <text x="420" y="620" fill="#475569" font-size="11">LLM08: 向量/Embedding投毒</text>
  <text x="620" y="620" fill="#475569" font-size="11">LLM09: 错误信息生成</text>
  <text x="820" y="600" fill="#475569" font-size="11">LLM10: 无界消耗</text>
</svg>