<svg xmlns="http://www.w3.org/2000/svg" viewBox="0 0 1200 780">
  <style>
    text { font-family: 'Segoe UI','Microsoft YaHei',system-ui,sans-serif; }
  </style>
  <defs>
    <marker id="arrow" viewBox="0 0 10 10" refX="5" refY="5" markerWidth="5" markerHeight="5" orient="auto-start-reverse">
      <path d="M 0 0 L 10 5 L 0 10 z" fill="#94a3b8"/>
    </marker>
  </defs>

  <!-- 背景 -->
  <rect width="1200" height="780" rx="12" fill="#ffffff" stroke="#d1d5db"/>

  <!-- 标题 -->
  <rect x="400" y="15" width="400" height="40" rx="8" fill="#1e293b"/>
  <text x="600" y="41" text-anchor="middle" fill="#ffffff" font-size="18" font-weight="bold">Agent 中台 / 平台架构</text>

  <!-- ===== 用户界面层 ===== -->
  <rect x="50" y="70" width="1100" height="85" rx="8" fill="#f8fafc" stroke="#e2e8f0"/>
  <text x="80" y="92" fill="#475569" font-size="12" font-weight="bold">用户界面层</text>

  <rect x="80" y="102" width="220" height="42" rx="6" fill="#1e293b"/>
  <text x="190" y="120" text-anchor="middle" fill="#ffffff" font-size="13" font-weight="bold">Agent Studio</text>
  <text x="190" y="136" text-anchor="middle" fill="#ffffff" font-size="10">对话式 + 拖拽式双模编排</text>

  <rect x="320" y="102" width="180" height="42" rx="6" fill="#1e293b"/>
  <text x="410" y="120" text-anchor="middle" fill="#ffffff" font-size="13" font-weight="bold">工具市场</text>
  <text x="410" y="136" text-anchor="middle" fill="#ffffff" font-size="10">内置 + 自定义 + MCP</text>

  <rect x="520" y="102" width="180" height="42" rx="6" fill="#1e293b"/>
  <text x="610" y="120" text-anchor="middle" fill="#ffffff" font-size="13" font-weight="bold">监控大盘</text>
  <text x="610" y="136" text-anchor="middle" fill="#ffffff" font-size="10">质量 / 性能 / 成本</text>

  <rect x="720" y="102" width="180" height="42" rx="6" fill="#1e293b"/>
  <text x="810" y="120" text-anchor="middle" fill="#ffffff" font-size="13" font-weight="bold">管理后台</text>
  <text x="810" y="136" text-anchor="middle" fill="#ffffff" font-size="10">权限 / 租户 / 配额</text>

  <rect x="920" y="102" width="200" height="42" rx="6" fill="#f1f5f9" stroke="#cbd5e1"/>
  <text x="1020" y="120" text-anchor="middle" fill="#1e293b" font-size="12" font-weight="bold">Prompt 管理</text>
  <text x="1020" y="136" text-anchor="middle" fill="#475569" font-size="10">版本控制 / A/B / 灰度</text>

  <line x1="600" y1="155" x2="600" y2="180" stroke="#94a3b8" stroke-width="1.5" marker-end="url(#arrow)"/>

  <!-- ===== 编排引擎层 ===== -->
  <rect x="50" y="180" width="1100" height="90" rx="8" fill="#f8fafc" stroke="#e2e8f0"/>
  <text x="80" y="202" fill="#475569" font-size="12" font-weight="bold">编排引擎层</text>

  <rect x="80" y="212" width="250" height="48" rx="6" fill="#1e293b"/>
  <text x="205" y="232" text-anchor="middle" fill="#ffffff" font-size="13" font-weight="bold">工作流引擎 (DAG)</text>
  <text x="205" y="250" text-anchor="middle" fill="#ffffff" font-size="10">条件 / 循环 / 并行 / 子流程</text>

  <rect x="360" y="212" width="230" height="48" rx="6" fill="#1e293b"/>
  <text x="475" y="232" text-anchor="middle" fill="#ffffff" font-size="13" font-weight="bold">对话引擎</text>
  <text x="475" y="250" text-anchor="middle" fill="#ffffff" font-size="10">多轮管理 / 状态机 / 记忆</text>

  <rect x="620" y="212" width="230" height="48" rx="6" fill="#1e293b"/>
  <text x="735" y="232" text-anchor="middle" fill="#ffffff" font-size="13" font-weight="bold">Agent 调度器</text>
  <text x="735" y="250" text-anchor="middle" fill="#ffffff" font-size="10">负载均衡 + 优先级 + 超时</text>

  <rect x="880" y="212" width="240" height="48" rx="6" fill="#f1f5f9" stroke="#cbd5e1"/>
  <text x="1000" y="232" text-anchor="middle" fill="#1e293b" font-size="12" font-weight="bold">评估服务</text>
  <text x="1000" y="250" text-anchor="middle" fill="#475569" font-size="10">自动化评测 / A/B实验 / 质量门禁</text>

  <line x1="600" y1="270" x2="600" y2="300" stroke="#94a3b8" stroke-width="1.5" marker-end="url(#arrow)"/>

  <!-- ===== 能力层 ===== -->
  <rect x="50" y="300" width="1100" height="150" rx="8" fill="#f8fafc" stroke="#e2e8f0"/>
  <text x="80" y="322" fill="#475569" font-size="12" font-weight="bold">能力层 (核心服务)</text>

  <!-- LLM网关 -->
  <rect x="80" y="335" width="240" height="100" rx="6" fill="#1e293b"/>
  <text x="200" y="355" text-anchor="middle" fill="#ffffff" font-size="13" font-weight="bold">LLM 网关 (Model Gateway)</text>
  <rect x="95" y="365" width="95" height="20" rx="3" fill="#f1f5f9"/>
  <text x="142" y="379" text-anchor="middle" fill="#1e293b" font-size="10">多模型路由</text>
  <rect x="200" y="365" width="95" height="20" rx="3" fill="#f1f5f9"/>
  <text x="247" y="379" text-anchor="middle" fill="#1e293b" font-size="10">负载均衡</text>
  <rect x="95" y="390" width="95" height="20" rx="3" fill="#f1f5f9"/>
  <text x="142" y="404" text-anchor="middle" fill="#1e293b" font-size="10">语义缓存</text>
  <rect x="200" y="390" width="95" height="20" rx="3" fill="#f1f5f9"/>
  <text x="247" y="404" text-anchor="middle" fill="#1e293b" font-size="10">成本控制</text>
  <rect x="95" y="415" width="200" height="16" rx="3" fill="#f1f5f9"/>
  <text x="195" y="427" text-anchor="middle" fill="#475569" font-size="9">降级: 主模型不可用 -> 备用模型</text>

  <!-- 工具执行引擎 -->
  <rect x="345" y="335" width="240" height="100" rx="6" fill="#1e293b"/>
  <text x="465" y="355" text-anchor="middle" fill="#ffffff" font-size="13" font-weight="bold">工具执行引擎</text>
  <rect x="360" y="365" width="95" height="20" rx="3" fill="#f1f5f9"/>
  <text x="407" y="379" text-anchor="middle" fill="#1e293b" font-size="10">Docker 沙箱</text>
  <rect x="465" y="365" width="95" height="20" rx="3" fill="#f1f5f9"/>
  <text x="512" y="379" text-anchor="middle" fill="#1e293b" font-size="10">权限控制</text>
  <rect x="360" y="390" width="95" height="20" rx="3" fill="#f1f5f9"/>
  <text x="407" y="404" text-anchor="middle" fill="#1e293b" font-size="10">MCP Server</text>
  <rect x="465" y="390" width="95" height="20" rx="3" fill="#f1f5f9"/>
  <text x="512" y="404" text-anchor="middle" fill="#1e293b" font-size="10">工具审核</text>
  <rect x="360" y="415" width="200" height="16" rx="3" fill="#f1f5f9"/>
  <text x="460" y="427" text-anchor="middle" fill="#475569" font-size="9">版本管理 + 灰度升级</text>

  <!-- 知识库服务 -->
  <rect x="610" y="335" width="240" height="100" rx="6" fill="#1e293b"/>
  <text x="730" y="355" text-anchor="middle" fill="#ffffff" font-size="13" font-weight="bold">知识库服务</text>
  <rect x="625" y="365" width="95" height="20" rx="3" fill="#f1f5f9"/>
  <text x="672" y="379" text-anchor="middle" fill="#1e293b" font-size="10">向量检索</text>
  <rect x="730" y="365" width="95" height="20" rx="3" fill="#f1f5f9"/>
  <text x="777" y="379" text-anchor="middle" fill="#1e293b" font-size="10">全文检索</text>
  <rect x="625" y="390" width="95" height="20" rx="3" fill="#f1f5f9"/>
  <text x="672" y="404" text-anchor="middle" fill="#1e293b" font-size="10">RAG Pipeline</text>
  <rect x="730" y="390" width="95" height="20" rx="3" fill="#f1f5f9"/>
  <text x="777" y="404" text-anchor="middle" fill="#1e293b" font-size="10">文档解析</text>
  <rect x="625" y="415" width="200" height="16" rx="3" fill="#f1f5f9"/>
  <text x="725" y="427" text-anchor="middle" fill="#475569" font-size="9">智能分块 + 混合检索 + Reranker</text>

  <!-- 记忆服务 -->
  <rect x="875" y="335" width="240" height="100" rx="6" fill="#1e293b"/>
  <text x="995" y="355" text-anchor="middle" fill="#ffffff" font-size="13" font-weight="bold">记忆服务</text>
  <rect x="890" y="365" width="95" height="20" rx="3" fill="#f1f5f9"/>
  <text x="937" y="379" text-anchor="middle" fill="#1e293b" font-size="10">短期记忆</text>
  <rect x="995" y="365" width="95" height="20" rx="3" fill="#f1f5f9"/>
  <text x="1042" y="379" text-anchor="middle" fill="#1e293b" font-size="10">长期记忆</text>
  <rect x="890" y="390" width="95" height="20" rx="3" fill="#f1f5f9"/>
  <text x="937" y="404" text-anchor="middle" fill="#1e293b" font-size="10">用户画像</text>
  <rect x="995" y="390" width="95" height="20" rx="3" fill="#f1f5f9"/>
  <text x="1042" y="404" text-anchor="middle" fill="#1e293b" font-size="10">跨会话复用</text>

  <line x1="600" y1="450" x2="600" y2="480" stroke="#94a3b8" stroke-width="1.5" marker-end="url(#arrow)"/>

  <!-- ===== 基础设施层 ===== -->
  <rect x="50" y="480" width="1100" height="105" rx="8" fill="#f8fafc" stroke="#e2e8f0"/>
  <text x="80" y="502" fill="#475569" font-size="12" font-weight="bold">基础设施层</text>

  <rect x="80" y="512" width="200" height="60" rx="6" fill="#1e293b"/>
  <text x="180" y="532" text-anchor="middle" fill="#ffffff" font-size="13" font-weight="bold">多租户隔离</text>
  <text x="180" y="548" text-anchor="middle" fill="#ffffff" font-size="10">K8s Namespace + 数据分区</text>
  <text x="180" y="562" text-anchor="middle" fill="#ffffff" font-size="10">资源配额 + 网络策略</text>

  <rect x="310" y="512" width="200" height="60" rx="6" fill="#1e293b"/>
  <text x="410" y="532" text-anchor="middle" fill="#ffffff" font-size="13" font-weight="bold">日志 + 链路追踪</text>
  <text x="410" y="548" text-anchor="middle" fill="#ffffff" font-size="10">OpenTelemetry + LangSmith</text>
  <text x="410" y="562" text-anchor="middle" fill="#ffffff" font-size="10">Prometheus + Grafana</text>

  <rect x="540" y="512" width="200" height="60" rx="6" fill="#1e293b"/>
  <text x="640" y="532" text-anchor="middle" fill="#ffffff" font-size="13" font-weight="bold">配置中心</text>
  <text x="640" y="548" text-anchor="middle" fill="#ffffff" font-size="10">Nacos / Apollo</text>
  <text x="640" y="562" text-anchor="middle" fill="#ffffff" font-size="10">动态配置 + 灰度发布</text>

  <rect x="770" y="512" width="170" height="60" rx="6" fill="#1e293b"/>
  <text x="855" y="532" text-anchor="middle" fill="#ffffff" font-size="13" font-weight="bold">密钥管理</text>
  <text x="855" y="548" text-anchor="middle" fill="#ffffff" font-size="10">Vault + 租户隔离</text>
  <text x="855" y="562" text-anchor="middle" fill="#ffffff" font-size="10">API Key 加密存储</text>

  <rect x="970" y="512" width="150" height="60" rx="6" fill="#1e293b"/>
  <text x="1045" y="532" text-anchor="middle" fill="#ffffff" font-size="13" font-weight="bold">审计日志</text>
  <text x="1045" y="548" text-anchor="middle" fill="#ffffff" font-size="10">操作可追溯</text>
  <text x="1045" y="562" text-anchor="middle" fill="#ffffff" font-size="10">合规审计</text>

  <!-- ===== Agent生命周期 ===== -->
  <rect x="50" y="605" width="1100" height="55" rx="8" fill="#f8fafc" stroke="#e2e8f0"/>
  <text x="80" y="627" fill="#475569" font-size="12" font-weight="bold">Agent 生命周期管理 (AgentOps)</text>

  <rect x="120" y="632" width="80" height="22" rx="4" fill="#1e293b"/>
  <text x="160" y="647" text-anchor="middle" fill="#ffffff" font-size="10">创建</text>
  <line x1="200" y1="643" x2="225" y2="643" stroke="#94a3b8" stroke-width="1" marker-end="url(#arrow)"/>
  <rect x="225" y="632" width="80" height="22" rx="4" fill="#1e293b"/>
  <text x="265" y="647" text-anchor="middle" fill="#ffffff" font-size="10">开发</text>
  <line x1="305" y1="643" x2="330" y2="643" stroke="#94a3b8" stroke-width="1" marker-end="url(#arrow)"/>
  <rect x="330" y="632" width="80" height="22" rx="4" fill="#1e293b"/>
  <text x="370" y="647" text-anchor="middle" fill="#ffffff" font-size="10">测试</text>
  <line x1="410" y1="643" x2="435" y2="643" stroke="#94a3b8" stroke-width="1" marker-end="url(#arrow)"/>
  <rect x="435" y="632" width="80" height="22" rx="4" fill="#1e293b"/>
  <text x="475" y="647" text-anchor="middle" fill="#ffffff" font-size="10">审核</text>
  <line x1="515" y1="643" x2="540" y2="643" stroke="#94a3b8" stroke-width="1" marker-end="url(#arrow)"/>
  <rect x="540" y="632" width="80" height="22" rx="4" fill="#1e293b"/>
  <text x="580" y="647" text-anchor="middle" fill="#ffffff" font-size="10">部署</text>
  <line x1="620" y1="643" x2="645" y2="643" stroke="#94a3b8" stroke-width="1" marker-end="url(#arrow)"/>
  <rect x="645" y="632" width="80" height="22" rx="4" fill="#1e293b"/>
  <text x="685" y="647" text-anchor="middle" fill="#ffffff" font-size="10">监控</text>
  <line x1="725" y1="643" x2="750" y2="643" stroke="#94a3b8" stroke-width="1" marker-end="url(#arrow)"/>
  <rect x="750" y="632" width="80" height="22" rx="4" fill="#1e293b"/>
  <text x="790" y="647" text-anchor="middle" fill="#ffffff" font-size="10">迭代</text>

  <!-- 反馈循环箭头 -->
  <path d="M 790 654 L 790 660 Q 790 665 785 665 L 165 665 Q 160 665 160 660 L 160 654" stroke="#94a3b8" stroke-width="1" fill="none" stroke-dasharray="4,3" marker-end="url(#arrow)"/>
  <text x="475" y="673" text-anchor="middle" fill="#475569" font-size="10">反馈驱动优化闭环</text>

  <!-- 底部指标 -->
  <rect x="100" y="695" width="1000" height="65" rx="6" fill="#f1f5f9" stroke="#cbd5e1"/>
  <text x="130" y="717" fill="#1e293b" font-size="12" font-weight="bold">关键指标:</text>
  <text x="230" y="717" fill="#475569" font-size="11">Agent 创建到上线 &lt;1天</text>
  <text x="430" y="717" fill="#475569" font-size="11">平台可用性 >99.9%</text>
  <text x="630" y="717" fill="#475569" font-size="11">租户数据泄露 0 事件</text>
  <text x="860" y="717" fill="#475569" font-size="11">新工具接入 &lt;2h</text>
  <text x="130" y="740" fill="#475569" font-size="11">参考: 字节 Agent TARS(框架) + Coze(平台) + 扣子空间(应用) 三层体系</text>
  <text x="700" y="740" fill="#475569" font-size="11">难点: 通用性 vs 定制化 | 评估标准化 | 成本分摊</text>
</svg>